HIERARCHY
ROOT Hips
{
	OFFSET 0.000000 0.000000 0.000000
	CHANNELS 6 Xposition Yposition Zposition Zrotation Yrotation Xrotation 
	JOINT LeftUpLeg_virtual
	{
		OFFSET 0.000000 0.000000 0.000000
		CHANNELS 3 Zrotation Yrotation Xrotation
		JOINT LeftUpLeg
		{
			OFFSET 10.205400 -3.823500 0.155100
			CHANNELS 3 Zrotation Yrotation Xrotation
			JOINT LeftLeg
			{
				OFFSET 0.708757 -12.982077 0.567790
				CHANNELS 3 Zrotation Yrotation Xrotation
				JOINT LeftFoot
				{
					OFFSET -0.708756 -10.717838 -2.184338
					CHANNELS 3 Zrotation Yrotation Xrotation
					JOINT LeftToeBase
					{
						OFFSET 0.108149 -7.191104 7.560241
						CHANNELS 3 Zrotation Yrotation Xrotation
						End Site
						{
							OFFSET 0.000000 0.000000 0.000000
						}
					}
				}
			}
		}
	}
	JOINT RightUpLeg_virtual
	{
		OFFSET 0.000000 0.000000 0.000000
		CHANNELS 3 Zrotation Yrotation Xrotation
		JOINT RightUpLeg
		{
			OFFSET -10.205400 -3.823500 0.005500
			CHANNELS 3 Zrotation Yrotation Xrotation
			JOINT RightLeg
			{
				OFFSET -0.708756 -12.982134 0.610632
				CHANNELS 3 Zrotation Yrotation Xrotation
				JOINT RightFoot
				{
					OFFSET 0.708754 -10.717769 -1.945823
					CHANNELS 3 Zrotation Yrotation Xrotation
					JOINT RightToeBase
					{
						OFFSET -0.108140 -7.191069 7.372968
						CHANNELS 3 Zrotation Yrotation Xrotation
						End Site
						{
							OFFSET 0.000000 0.000000 0.000000
						}
					}
				}
			}
		}
	}
	JOINT Spine_virtual
	{
		OFFSET 0.000000 0.000000 0.000000
		CHANNELS 3 Zrotation Yrotation Xrotation
		JOINT Spine
		{
			OFFSET 0.000000 6.876099 0.125700
			CHANNELS 3 Zrotation Yrotation Xrotation
			JOINT Spine1
			{
				OFFSET 0.000000 8.022060 0.146608
				CHANNELS 3 Zrotation Yrotation Xrotation
				JOINT Spine2
				{
					OFFSET 0.000000 9.168068 0.167552
					CHANNELS 3 Zrotation Yrotation Xrotation
					JOINT Neck_virtual
					{
						OFFSET 0.000000 0.000000 0.000000
						CHANNELS 3 Zrotation Yrotation Xrotation
						JOINT Neck
						{
							OFFSET 0.000000 10.314075 0.188496
							CHANNELS 3 Zrotation Yrotation Xrotation
							JOINT Head
							{
								OFFSET 0.000000 7.643700 -2.377400
								CHANNELS 3 Zrotation Yrotation Xrotation
								End Site
								{
									OFFSET 0.000000 0.000000 0.000000
								}
							}
						}
					}
					JOINT LeftShoulder_virtual
					{
						OFFSET 0.000000 0.000000 0.000000
						CHANNELS 3 Zrotation Yrotation Xrotation
						JOINT LeftShoulder
						{
							OFFSET 4.392200 8.824978 0.174984
							CHANNELS 3 Zrotation Yrotation Xrotation
							JOINT LeftArm
							{
								OFFSET 8.771219 -2.981674 -0.026999
								CHANNELS 3 Zrotation Yrotation Xrotation
								JOINT LeftForeArm
								{
									OFFSET 8.512804 0.000000 -0.000000
									CHANNELS 3 Zrotation Yrotation Xrotation
									JOINT LeftHand
									{
										OFFSET 18.484802 0.000000 -0.000000
										CHANNELS 3 Zrotation Yrotation Xrotation
										End Site
										{
											OFFSET 0.000000 0.000000 0.000000
										}
									}
								}
							}
						}
					}
					JOINT RightShoulder_virtual
					{
						OFFSET 0.000000 0.000000 0.000000
						CHANNELS 3 Zrotation Yrotation Xrotation
						JOINT RightShoulder
						{
							OFFSET -4.392200 8.824993 0.141379
							CHANNELS 3 Zrotation Yrotation Xrotation
							JOINT RightArm
							{
								OFFSET -8.771282 -2.981682 -0.094208
								CHANNELS 3 Zrotation Yrotation Xrotation
								JOINT RightForeArm
								{
									OFFSET -8.494598 0.000000 0.000000
									CHANNELS 3 Zrotation Yrotation Xrotation
									JOINT RightHand
									{
										OFFSET -18.483803 0.000000 0.000001
										CHANNELS 3 Zrotation Yrotation Xrotation
										End Site
										{
											OFFSET 0.000000 0.000000 0.000000
										}
									}
								}
							}
						}
					}
				}
			}
		}
	}
}
MOTION
Frames: 9
Frame Time: 0.033333
3.133053 36.411835 -7.353074 -179.876365 0.126839 179.699996 -2.955693 -1.970555 11.849479 -0.417774 -4.979776 -12.503436 3.054001 5.478755 14.840061 -1.382494 0.378693 8.765917 0.000000 0.000000 0.000000 1.677627 -2.129691 11.051956 1.417567 -10.188466 -1.259110 -7.708760 -2.068135 7.608032 9.159764 8.020403 10.437593 0.000000 0.000000 0.000000 0.668983 1.070884 -0.077100 -1.647921 0.162773 -10.659572 -0.079900 -3.617935 5.640005 -0.001861 0.074125 -0.064396 -0.330616 -1.759299 5.757608 3.878131 -0.570119 4.426334 0.000000 0.000000 0.000000 1.400341 -1.016753 2.989834 -1.325312 2.187132 -1.308728 2.031572 13.147832 -27.749785 -6.904132 -31.215214 -3.446703 0.000000 0.000000 0.000000 -2.766616 -0.125921 2.381989 12.735332 -7.424912 -5.586674 22.152016 -25.257968 -35.032617 -2.654493 36.108113 -5.328324 0.000000 0.000000 0.000000 
3.123806 36.405300 -7.441152 -179.954229 -0.007502 179.570345 -3.052879 -1.983209 11.859419 -0.457588 -4.624045 -12.294481 3.186846 5.651058 14.789726 -1.142694 0.596080 8.680907 0.000000 0.000000 0.000000 1.783485 -2.266549 10.918510 0.809108 -9.980554 -1.189781 -7.594562 -2.016008 7.471384 9.562666 8.225183 10.010068 0.000000 0.000000 0.000000 0.563684 0.996458 -0.020583 -1.630830 0.169395 -10.621361 -0.074107 -3.609918 5.571566 0.040043 0.055169 -0.048520 -0.365584 -1.737778 5.600039 3.880397 -0.608841 4.408327 0.000000 0.000000 0.000000 1.364282 -0.928634 2.902510 -1.311893 2.250946 -1.600717 2.040283 13.043723 -27.571720 -6.951044 -31.223879 -3.354239 0.000000 0.000000 0.000000 -2.824665 -0.093544 2.345354 12.734523 -7.469888 -5.511408 22.223542 -25.282097 -35.237701 -2.686964 36.277156 -5.455553 0.000000 0.000000 0.000000 
3.114438 36.405033 -7.560322 -179.903535 -0.219890 179.576656 -3.045869 -2.034292 11.920389 -0.377493 -4.515742 -12.140770 3.084862 5.671139 14.757974 -1.178259 0.525129 8.548150 0.000000 0.000000 0.000000 1.926669 -2.356385 10.988627 0.568409 -9.995775 -1.015687 -7.402947 -2.215044 7.584648 9.545416 8.305606 9.858197 0.000000 0.000000 0.000000 0.542628 0.985050 -0.039570 -1.597036 0.180302 -10.724087 -0.075076 -3.631157 5.565013 0.004899 0.033284 -0.108127 -0.344714 -1.839793 5.575584 3.898821 -0.619842 4.439161 0.000000 0.000000 0.000000 1.400821 -0.926300 2.840534 -1.407222 2.269399 -1.334663 2.150758 12.987186 -27.491458 -6.873650 -31.207787 -3.399755 0.000000 0.000000 0.000000 -2.788365 -0.091116 2.386102 12.765550 -7.462012 -5.540928 22.319021 -25.476259 -35.691874 -2.645762 36.389161 -5.309918 0.000000 0.000000 0.000000 
3.109768 36.405361 -7.684141 -179.902907 -0.375721 179.571356 -3.103957 -2.011246 12.057357 -0.297213 -4.470654 -12.063189 2.990742 5.668369 14.720072 -1.178051 0.440982 8.449451 0.000000 0.000000 0.000000 1.992715 -2.426889 11.113578 0.452306 -10.041454 -0.902754 -7.348952 -2.165795 7.645795 9.481557 8.365190 9.768653 0.000000 0.000000 0.000000 0.487904 0.994438 -0.009698 -1.586590 0.220760 -10.844498 -0.046882 -3.590723 5.448225 0.018053 0.061574 -0.010833 -0.348145 -1.741978 5.425584 3.899983 -0.652339 4.630468 0.000000 0.000000 0.000000 1.395306 -0.909053 2.684256 -1.519692 2.236886 -1.422698 2.346868 12.858054 -27.161226 -6.848643 -31.138682 -3.266318 0.000000 0.000000 0.000000 -2.763832 -0.090505 2.190609 12.803733 -7.437945 -5.428968 22.476334 -25.784283 -36.079163 -2.566754 36.478186 -5.268110 0.000000 0.000000 0.000000 
3.113307 36.406563 -7.802741 -179.924204 -0.570616 179.624099 -3.167141 -2.019526 12.190889 -0.163042 -4.476182 -12.108226 2.910382 5.695907 14.681101 -1.168097 0.334694 8.381514 0.000000 0.000000 0.000000 2.027221 -2.465112 11.259101 0.400247 -10.076430 -0.884024 -7.310397 -2.075237 7.641677 9.383736 8.282200 9.729344 0.000000 0.000000 0.000000 0.436979 1.016559 -0.015713 -1.582007 0.236659 -10.952784 -0.019856 -3.553261 5.392833 0.008362 0.093031 -0.103759 -0.287141 -1.817334 5.365204 3.924073 -0.692314 4.731316 0.000000 0.000000 0.000000 1.440612 -0.894477 2.639391 -1.652422 2.222553 -1.380202 2.556166 12.767849 -26.862337 -6.777159 -31.148562 -3.219735 0.000000 0.000000 0.000000 -2.728550 -0.088361 2.109757 12.863331 -7.325098 -5.345205 22.646537 -26.153665 -36.386542 -2.462998 36.421697 -5.175816 0.000000 0.000000 0.000000 
3.128650 36.406925 -7.888861 -179.912428 -0.874123 179.667334 -3.177088 -2.028659 12.284799 0.005519 -4.500908 -12.219428 2.899455 5.673220 14.772552 -1.151366 0.223050 8.341305 0.000000 0.000000 0.000000 2.083695 -2.463284 11.418303 0.447619 -10.089662 -0.938569 -7.264135 -2.081083 7.618475 9.260460 8.229995 9.769675 0.000000 0.000000 0.000000 0.419699 1.034035 -0.018367 -1.550380 0.170079 -11.035529 0.017346 -3.545653 5.280266 -0.026003 0.082776 -0.078632 -0.208585 -1.813895 5.268822 3.933536 -0.772689 4.974869 0.000000 0.000000 0.000000 1.512193 -0.865805 2.504723 -1.724048 2.168948 -1.292991 2.737526 12.817240 -26.606515 -6.729990 -31.185541 -3.096446 0.000000 0.000000 0.000000 -2.648376 -0.061748 1.939429 12.944213 -7.118937 -5.216280 22.745404 -26.527883 -36.583292 -2.384284 36.259565 -5.110681 0.000000 0.000000 0.000000 
3.148946 36.406998 -7.947593 179.927974 -1.157517 179.695706 -3.385713 -2.035184 12.356622 0.095638 -4.490663 -12.371553 2.936434 5.455820 14.938064 -1.182890 0.083665 8.248983 0.000000 0.000000 0.000000 1.937420 -2.438658 11.562219 0.495542 -10.180605 -1.041375 -7.101516 -2.078458 7.605030 9.172182 7.996431 9.793179 0.000000 0.000000 0.000000 0.292237 0.889027 -0.038202 -1.571020 0.143262 -11.044338 0.030122 -3.475311 5.183965 0.019628 0.121974 -0.055590 -0.190184 -1.588917 5.220451 3.890317 -0.891209 5.237894 0.000000 0.000000 0.000000 1.487726 -0.816439 2.438363 -1.781771 2.107534 -1.283647 2.780136 12.869267 -26.366036 -6.664752 -31.335528 -2.988475 0.000000 0.000000 0.000000 -2.652521 -0.072127 1.865727 12.900765 -6.881000 -5.158382 22.941945 -26.796041 -36.979505 -2.237860 36.127398 -4.950440 0.000000 0.000000 0.000000 
3.172764 36.403942 -7.987093 179.893946 -1.477828 179.728191 -3.456407 -2.165738 12.379837 0.187503 -4.589762 -12.501206 2.996287 5.446613 15.233955 -1.248436 -0.029875 8.154069 0.000000 0.000000 0.000000 1.915823 -2.538209 11.677086 0.595205 -10.256761 -1.142302 -7.048017 -2.135709 7.678350 9.152623 7.810576 9.827311 0.000000 0.000000 0.000000 0.240575 0.959470 -0.034661 -1.497824 0.064575 -10.973945 0.031451 -3.512260 5.110603 0.019531 0.043813 -0.058705 -0.153419 -1.663402 5.118642 3.835805 -1.059107 5.363165 0.000000 0.000000 0.000000 1.498209 -0.779053 2.404147 -1.738150 1.974893 -1.321004 2.594244 13.090440 -26.108557 -6.522339 -31.601144 -2.857445 0.000000 0.000000 0.000000 -2.627881 -0.015625 1.750604 12.854698 -6.574658 -4.862473 23.053355 -27.004427 -37.202729 -2.201801 35.953832 -4.893826 0.000000 0.000000 0.000000 
3.191562 36.397392 -8.012918 179.945363 -1.441141 179.757861 -3.399240 -2.176517 12.360170 0.240737 -4.672293 -12.633862 3.216429 5.571087 15.597447 -1.394847 -0.149193 7.991993 0.000000 0.000000 0.000000 1.951808 -2.497914 11.668546 0.716260 -9.933644 -1.291452 -7.053443 -1.716918 7.827730 9.015979 7.423749 9.909002 0.000000 0.000000 0.000000 0.269100 0.916330 -0.055237 -1.327311 0.143191 -10.891329 0.046229 -3.472435 4.998588 0.020906 0.056900 -0.065212 -0.200445 -1.620277 5.086748 3.735215 -1.237986 5.553702 0.000000 0.000000 0.000000 1.449996 -0.748205 2.384876 -1.641897 1.765930 -1.074875 2.091967 13.383570 -25.963938 -6.302815 -31.915049 -2.773198 0.000000 0.000000 0.000000 -2.664047 0.051872 1.696357 12.739877 -6.216388 -4.582902 23.198693 -27.260542 -37.368989 -2.174085 35.901540 -4.815776 0.000000 0.000000 0.000000 
